<svg width="35" height="35" viewBox="0 0 35 35" fill="none" xmlns="http://www.w3.org/2000/svg">
<rect width="35" height="35" rx="17.5" fill="#ED1C24"/>
<path d="M22.36 20C22.44 19.34 22.5 18.68 22.5 18C22.5 17.32 22.44 16.66 22.36 16H25.74C25.9 16.64 26 17.31 26 18C26 18.69 25.9 19.36 25.74 20M20.59 25.56C21.19 24.45 21.65 23.25 21.97 22H24.92C23.9512 23.6683 22.4141 24.932 20.59 25.56ZM20.34 20H15.66C15.56 19.34 15.5 18.68 15.5 18C15.5 17.32 15.56 16.65 15.66 16H20.34C20.43 16.65 20.5 17.32 20.5 18C20.5 18.68 20.43 19.34 20.34 20ZM18 25.96C17.17 24.76 16.5 23.43 16.09 22H19.91C19.5 23.43 18.83 24.76 18 25.96ZM14 14H11.08C12.0386 12.327 13.5747 11.0612 15.4 10.44C14.8 11.55 14.35 12.75 14 14ZM11.08 22H14C14.35 23.25 14.8 24.45 15.4 25.56C13.5783 24.9323 12.0443 23.6682 11.08 22ZM10.26 20C10.1 19.36 10 18.69 10 18C10 17.31 10.1 16.64 10.26 16H13.64C13.56 16.66 13.5 17.32 13.5 18C13.5 18.68 13.56 19.34 13.64 20M18 10.03C18.83 11.23 19.5 12.57 19.91 14H16.09C16.5 12.57 17.17 11.23 18 10.03ZM24.92 14H21.97C21.6565 12.7616 21.1931 11.5661 20.59 10.44C22.43 11.07 23.96 12.34 24.92 14ZM18 8C12.47 8 8 12.5 8 18C8 20.6522 9.05357 23.1957 10.9289 25.0711C11.8575 25.9997 12.9599 26.7362 14.1732 27.2388C15.3864 27.7413 16.6868 28 18 28C20.6522 28 23.1957 26.9464 25.0711 25.0711C26.9464 23.1957 28 20.6522 28 18C28 16.6868 27.7413 15.3864 27.2388 14.1732C26.7362 12.9599 25.9997 11.8575 25.0711 10.9289C24.1425 10.0003 23.0401 9.26375 21.8268 8.7612C20.6136 8.25866 19.3132 8 18 8Z" fill="#FEFEFE"/>
</svg>
